# xmcd CD database file
#
# Track frame offsets:
#	150
#	16927
#	31402
#	46800
#	62230
#	89605
#	107510
#	124712
#	143305
#	158307
#
# Disc length: 2411 seconds
#
# Revision: 0
# Processed by: cddbd v1.5.1PL0 Copyright (c) Steve Scherf et al.
# Submitted via: CDex 1.51
#
DISCID=6f09690a
DTITLE=Misc. - A WVXYou Christmas Volume 2
DYEAR=1986
DGENRE=Jazz
TTITLE0=The Chrsitmas Song
TTITLE1=Santa Claus Is Coming To Town
TTITLE2=Winter Wonderland
TTITLE3=We Wish You A Merry Christmas
TTITLE4=Let It Snow
TTITLE5=Jingle Bells
TTITLE6=Have Yourself A Merry Little Christmas
TTITLE7=God Rest Ye Merry Gentlemen
TTITLE8=Blue Christmas
TTITLE9=What Are You Doing New Year's Eve
EXTD=YEAR: 1986
EXTT0=
EXTT1=
EXTT2=
EXTT3=
EXTT4=
EXTT5=
EXTT6=
EXTT7=
EXTT8=
EXTT9=
PLAYORDER=
